<svg xmlns="http://www.w3.org/2000/svg" version="1.1" xmlns:xlink="http://www.w3.org/1999/xlink" xmlns:svgjs="http://svgjs.dev/svgjs" width="1500" height="1500" viewBox="0 0 1500 1500"><rect width="1500" height="1500" fill="#2a3990"></rect><g transform="matrix(0.6666666666666666,0,0,0.6666666666666666,249.39393939393938,646.5345716650697)"><svg viewBox="0 0 396 82" data-background-color="#2a3990" preserveAspectRatio="xMidYMid meet" height="310" width="1500" xmlns="http://www.w3.org/2000/svg" xmlns:xlink="http://www.w3.org/1999/xlink"><g id="tight-bounds" transform="matrix(1,0,0,1,0.2400000000000091,0.052411887730357876)"><svg viewBox="0 0 395.52 81.89515990643524" height="81.89515990643524" width="395.52"><g><svg viewBox="0 0 522.088174311643 108.10197846002943" height="81.89515990643524" width="395.52"><g transform="matrix(1,0,0,1,126.56817431164298,14.9402879058362)"><svg viewBox="0 0 395.52 78.22140264835703" height="78.22140264835703" width="395.52"><g id="textblocktransform"><svg viewBox="0 0 395.52 78.22140264835703" height="78.22140264835703" width="395.52" id="textblock"><g><svg viewBox="0 0 395.52 78.22140264835703" height="78.22140264835703" width="395.52"><g transform="matrix(1,0,0,1,0,0)"><svg width="395.52" viewBox="3.44 -38.57 199.11 39.38" height="78.22140264835703" data-palette-color="#ffffff"><path d="M33.42-14.06L33.42-14.06Q33.42-10.99 32.5-8.3 31.57-5.62 29.81-3.63 28.05-1.64 25.51-0.49 22.97 0.66 19.75 0.66L19.75 0.66Q18.12 0.66 16.64 0.17 15.16-0.32 13.93-1.21 12.7-2.1 11.76-3.34 10.82-4.59 10.28-6.13L10.28-6.13 6.62 0 3.44 0 3.44-38.57 11.69-38.57 11.69-24.83Q13.16-26.86 15.22-27.81 17.29-28.76 19.75-28.76L19.75-28.76Q22.97-28.76 25.51-27.61 28.05-26.46 29.81-24.49 31.57-22.51 32.5-19.82 33.42-17.14 33.42-14.06ZM25.05-14.06L25.05-14.06Q25.05-15.14 24.94-16.35 24.83-17.55 24.56-18.75 24.29-19.95 23.82-21.04 23.34-22.14 22.61-22.99 21.88-23.83 20.85-24.33 19.82-24.83 18.43-24.83L18.43-24.83Q17.16-24.83 16.17-24.3 15.19-23.78 14.44-22.9 13.7-22.02 13.18-20.9 12.67-19.78 12.35-18.58 12.04-17.38 11.89-16.21 11.74-15.04 11.74-14.06L11.74-14.06Q11.74-12.96 11.85-11.74 11.96-10.52 12.23-9.31 12.5-8.11 12.98-7.02 13.45-5.93 14.2-5.09 14.94-4.25 15.98-3.76 17.02-3.27 18.43-3.27L18.43-3.27Q19.8-3.27 20.84-3.77 21.88-4.27 22.61-5.11 23.34-5.96 23.82-7.07 24.29-8.18 24.56-9.38 24.83-10.57 24.94-11.78 25.05-12.99 25.05-14.06ZM68.53-14.16L68.53-14.16Q68.53-11.96 67.94-10.03 67.36-8.11 66.32-6.47 65.28-4.83 63.82-3.53 62.35-2.22 60.61-1.32 58.86-0.42 56.87 0.07 54.88 0.56 52.78 0.56L52.78 0.56Q50.68 0.56 48.7 0.07 46.73-0.42 44.98-1.32 43.23-2.22 41.77-3.53 40.31-4.83 39.27-6.47 38.23-8.11 37.64-10.05 37.06-11.99 37.06-14.16L37.06-14.16Q37.06-16.33 37.64-18.27 38.23-20.21 39.27-21.85 40.31-23.49 41.77-24.79 43.23-26.1 44.98-27 46.73-27.91 48.7-28.39 50.68-28.88 52.78-28.88L52.78-28.88Q54.88-28.88 56.87-28.39 58.86-27.91 60.61-27 62.35-26.1 63.82-24.79 65.28-23.49 66.32-21.85 67.36-20.21 67.94-18.27 68.53-16.33 68.53-14.16ZM60.13-14.16L60.13-14.16Q60.13-15.33 60-16.64 59.86-17.94 59.54-19.2 59.23-20.46 58.68-21.62 58.13-22.78 57.32-23.65 56.52-24.51 55.39-25.04 54.27-25.56 52.78-25.56L52.78-25.56Q51.36-25.56 50.27-25.02 49.17-24.49 48.35-23.6 47.53-22.71 46.98-21.53 46.43-20.36 46.09-19.1 45.75-17.85 45.6-16.56 45.46-15.28 45.46-14.16L45.46-14.16Q45.46-13.04 45.6-11.76 45.75-10.47 46.09-9.2 46.43-7.93 46.98-6.77 47.53-5.62 48.35-4.72 49.17-3.83 50.27-3.3 51.36-2.76 52.78-2.76L52.78-2.76Q54.25-2.76 55.37-3.28 56.49-3.81 57.31-4.69 58.13-5.57 58.66-6.71 59.2-7.86 59.53-9.13 59.86-10.4 60-11.69 60.13-12.99 60.13-14.16ZM102.12-28.2L102.12 0 93.87 0 93.87-3.37Q92.4-1.37 90.34-0.4 88.28 0.56 85.81 0.56L85.81 0.56Q82.59 0.56 80.05-0.59 77.51-1.73 75.75-3.72 73.99-5.71 73.07-8.4 72.14-11.08 72.14-14.16L72.14-14.16Q72.14-17.24 73.07-19.92 73.99-22.61 75.75-24.6 77.51-26.59 80.05-27.73 82.59-28.88 85.81-28.88L85.81-28.88Q87.45-28.88 88.92-28.39 90.4-27.91 91.63-27.01 92.87-26.12 93.81-24.87 94.75-23.61 95.28-22.07L95.28-22.07 98.95-28.2 102.12-28.2ZM93.82-14.16L93.82-14.16Q93.82-15.26 93.71-16.48 93.6-17.7 93.33-18.9 93.06-20.09 92.59-21.18 92.11-22.27 91.36-23.11 90.62-23.95 89.57-24.44 88.52-24.93 87.13-24.93L87.13-24.93Q85.74-24.93 84.71-24.43 83.69-23.93 82.95-23.08 82.22-22.24 81.75-21.14 81.27-20.04 81-18.85 80.73-17.65 80.62-16.44 80.51-15.23 80.51-14.16L80.51-14.16Q80.51-13.09 80.62-11.87 80.73-10.64 81-9.45 81.27-8.25 81.75-7.15 82.22-6.05 82.95-5.21 83.69-4.37 84.71-3.87 85.74-3.37 87.13-3.37L87.13-3.37Q88.4-3.37 89.39-3.89 90.38-4.42 91.12-5.3 91.87-6.18 92.38-7.3 92.89-8.42 93.21-9.62 93.53-10.82 93.67-12 93.82-13.18 93.82-14.16ZM132.98-25.71L132.98-25.71 128.34-18.02Q128.04-18.99 127.58-20.21 127.12-21.44 126.43-22.5 125.75-23.56 124.8-24.28 123.85-25 122.6-25L122.6-25Q121.45-25 120.61-24.41 119.77-23.83 119.18-22.89 118.6-21.95 118.22-20.76 117.84-19.58 117.63-18.37 117.42-17.16 117.35-16.05 117.28-14.94 117.28-14.14L117.28-14.14 117.28 0 109 0 109-28.2 112.18-28.2 115.52-21.63Q116.2-23.22 117.08-24.55 117.96-25.88 119.11-26.84 120.26-27.81 121.71-28.34 123.16-28.88 124.99-28.88L124.99-28.88Q125.94-28.88 127.12-28.72 128.29-28.56 129.41-28.19 130.53-27.81 131.49-27.2 132.44-26.59 132.98-25.71ZM164.22-38.57L164.22 0 161.05 0 157.39-6.13Q156.85-4.59 155.91-3.34 154.97-2.1 153.74-1.21 152.5-0.32 151.03 0.17 149.55 0.66 147.91 0.66L147.91 0.66Q144.69 0.66 142.15-0.49 139.61-1.64 137.86-3.63 136.1-5.62 135.17-8.3 134.24-10.99 134.24-14.06L134.24-14.06Q134.24-17.14 135.17-19.82 136.1-22.51 137.86-24.49 139.61-26.46 142.15-27.61 144.69-28.76 147.91-28.76L147.91-28.76Q150.38-28.76 152.44-27.81 154.51-26.86 155.97-24.83L155.97-24.83 155.97-38.57 164.22-38.57ZM155.92-14.06L155.92-14.06Q155.92-15.04 155.78-16.21 155.63-17.38 155.31-18.58 154.99-19.78 154.48-20.9 153.97-22.02 153.22-22.9 152.48-23.78 151.49-24.3 150.5-24.83 149.23-24.83L149.23-24.83Q147.84-24.83 146.82-24.33 145.79-23.83 145.06-22.99 144.33-22.14 143.85-21.04 143.37-19.95 143.11-18.75 142.84-17.55 142.73-16.35 142.62-15.14 142.62-14.06L142.62-14.06Q142.62-12.99 142.73-11.78 142.84-10.57 143.11-9.38 143.37-8.18 143.85-7.07 144.33-5.96 145.06-5.11 145.79-4.27 146.82-3.77 147.84-3.27 149.23-3.27L149.23-3.27Q150.62-3.27 151.67-3.76 152.72-4.25 153.47-5.09 154.21-5.93 154.69-7.02 155.17-8.11 155.43-9.31 155.7-10.52 155.81-11.74 155.92-12.96 155.92-14.06ZM195.08-25.71L195.08-25.71 190.44-18.02Q190.15-18.99 189.68-20.21 189.22-21.44 188.54-22.5 187.85-23.56 186.9-24.28 185.95-25 184.7-25L184.7-25Q183.56-25 182.71-24.41 181.87-23.83 181.29-22.89 180.7-21.95 180.32-20.76 179.94-19.58 179.74-18.37 179.53-17.16 179.46-16.05 179.38-14.94 179.38-14.14L179.38-14.14 179.38 0 171.11 0 171.11-28.2 174.28-28.2 177.62-21.63Q178.31-23.22 179.19-24.55 180.07-25.88 181.21-26.84 182.36-27.81 183.81-28.34 185.27-28.88 187.1-28.88L187.1-28.88Q188.05-28.88 189.22-28.72 190.39-28.56 191.52-28.19 192.64-27.81 193.59-27.2 194.54-26.59 195.08-25.71ZM202.55-3.66L202.55-3.66Q202.55-2.73 202.21-1.92 201.86-1.1 201.25-0.5 200.64 0.1 199.84 0.45 199.03 0.81 198.11 0.81L198.11 0.81Q197.18 0.81 196.37 0.45 195.57 0.1 194.96-0.5 194.35-1.1 194-1.92 193.66-2.73 193.66-3.66L193.66-3.66Q193.66-4.57 194-5.38 194.35-6.2 194.96-6.8 195.57-7.4 196.37-7.75 197.18-8.11 198.11-8.11L198.11-8.11Q199.03-8.11 199.84-7.75 200.64-7.4 201.25-6.8 201.86-6.2 202.21-5.38 202.55-4.57 202.55-3.66Z" opacity="1" transform="matrix(1,0,0,1,0,0)" fill="#ffffff" class="wordmark-text-0" data-fill-palette-color="primary" id="text-0"></path></svg></g></svg></g></svg></g></svg></g><g><svg viewBox="0 0 108.10197846002944 108.10197846002943" height="108.10197846002943" width="108.10197846002944"><g><svg></svg></g><g id="icon-0"><svg viewBox="0 0 108.10197846002944 108.10197846002943" height="108.10197846002943" width="108.10197846002944"><g><path transform="scale(1.08102,1.08102)" d="M30 100c-16.569 0-30-13.431-30-30v-40c0-16.569 13.431-30 30-30h40c16.569 0 30 13.431 30 30v40c0 16.569-13.431 30-30 30z" fill="#ffffff" fill-rule="nonzero" stroke="none" stroke-width="1" stroke-linecap="butt" stroke-linejoin="miter" stroke-miterlimit="10" stroke-dasharray="" stroke-dashoffset="0" font-family="none" font-weight="none" font-size="none" text-anchor="none" style="mix-blend-mode: normal" data-fill-palette-color="accent"></path></g><g transform="matrix(1,0,0,1,21.620395692005893,21.620395692005886)"><svg viewBox="0 0 64.86118707601766 64.86118707601766" height="64.86118707601766" width="64.86118707601766"><g><svg xmlns="http://www.w3.org/2000/svg" xmlns:xlink="http://www.w3.org/1999/xlink" version="1.1" x="0" y="0" viewBox="0.5 0.5 47 47" enable-background="new 0 0 48 48" xml:space="preserve" height="64.86118707601766" width="64.86118707601766" class="icon-dxe-0" data-fill-palette-color="quaternary" id="dxe-0"><g fill="#2a3990" data-fill-palette-color="quaternary"><path fill="#2a3990" d="M16.8 47.5H2.3C1.3 47.5 0.5 46.7 0.5 45.7V2.3C0.5 1.3 1.3 0.5 2.3 0.5H16.8C17.8 0.5 18.6 1.3 18.6 2.3V45.7C18.6 46.7 17.8 47.5 16.8 47.5" data-fill-palette-color="quaternary"></path><path fill="#2a3990" d="M45.7 16.9H28.7C27.7 16.9 26.9 16.1 26.9 15.1V2.3C26.9 1.3 27.7 0.5 28.7 0.5H45.7C46.7 0.5 47.5 1.3 47.5 2.3V15.2C47.5 16.1 46.7 16.9 45.7 16.9" data-fill-palette-color="quaternary"></path><path fill="#2a3990" d="M45.7 46.4H28.7C27.7 46.4 26.9 45.6 26.9 44.6V27.4C26.9 26.4 27.7 25.6 28.7 25.6H45.7C46.7 25.6 47.5 26.4 47.5 27.4V44.5C47.5 45.6 46.7 46.4 45.7 46.4" data-fill-palette-color="quaternary"></path></g></svg></g></svg></g></svg></g></svg></g></svg></g><defs></defs></svg><rect width="395.52" height="81.89515990643524" fill="none" stroke="none" visibility="hidden"></rect></g></svg></g></svg>